<svg id="Capa_1" data-name="Capa 1" xmlns="http://www.w3.org/2000/svg" viewBox="0 0 78.68 78.68"><defs><style>.cls-1{fill:none;}.cls-2{fill:#fff;fill-rule:evenodd;}</style></defs><path class="cls-1" d="M51.93,24a2.73,2.73,0,1,0,2.73,2.73A2.73,2.73,0,0,0,51.93,24Z"/><path class="cls-2" d="M39.34,31.4a7.94,7.94,0,1,0,7.94,7.94A7.93,7.93,0,0,0,39.34,31.4Z"/><path class="cls-2" d="M39.34,0A39.34,39.34,0,1,0,78.68,39.34,39.34,39.34,0,0,0,39.34,0Zm23.1,49.7A12.74,12.74,0,0,1,49.7,62.44H29A12.73,12.73,0,0,1,16.24,49.7V29A12.73,12.73,0,0,1,29,16.24H49.7A12.74,12.74,0,0,1,62.44,29Z"/><path class="cls-2" d="M49.65,20H29A9.06,9.06,0,0,0,20,29V49.65A9.06,9.06,0,0,0,29,58.71H49.65a9.06,9.06,0,0,0,9.06-9.06V29A9.06,9.06,0,0,0,49.65,20ZM39.34,51.51A12.18,12.18,0,1,1,51.51,39.34,12.17,12.17,0,0,1,39.34,51.51Zm12.59-22a2.73,2.73,0,1,1,2.73-2.73A2.73,2.73,0,0,1,51.93,29.49Z"/></svg>