<svg id="Capa_1" data-name="Capa 1" xmlns="http://www.w3.org/2000/svg" viewBox="0 0 78.68 78.68"><defs><style>.cls-1{fill:#fff;fill-rule:evenodd;}</style></defs><path class="cls-1" d="M39.34,0A39.34,39.34,0,1,0,78.68,39.34,39.34,39.34,0,0,0,39.34,0ZM17.09,20.78H61.58a3.77,3.77,0,0,1,2.57,1L39.34,43.05,14.54,21.8A3.7,3.7,0,0,1,17.09,20.78ZM13.36,24,31.3,39.63,13.36,54.88ZM61.58,57.9H17.09a3.77,3.77,0,0,1-2.56-1L32.91,41.14l6.43,5.62,6.43-5.62L64.14,56.89A3.77,3.77,0,0,1,61.58,57.9Zm3.74-3L47.38,39.63,65.32,24Z"/></svg>