<svg id="Capa_1" data-name="Capa 1" xmlns="http://www.w3.org/2000/svg" viewBox="0 0 78.68 78.68"><defs><style>.cls-1{fill:#fff;fill-rule:evenodd;}</style></defs><path class="cls-1" d="M39.34,0A39.34,39.34,0,1,0,78.68,39.34,39.34,39.34,0,0,0,39.34,0ZM59.83,53.35l-5.95,5.91a3.38,3.38,0,0,1-1.05.76,4.3,4.3,0,0,1-1.28.4l-.27,0a4.51,4.51,0,0,1-.58,0,19.67,19.67,0,0,1-7.41-1.73,39.4,39.4,0,0,1-6.24-3.42,46.36,46.36,0,0,1-7.43-6.27,48.75,48.75,0,0,1-5.19-5.91,41.61,41.61,0,0,1-3.32-5.21,28.93,28.93,0,0,1-1.88-4.34,24.29,24.29,0,0,1-.85-3.36A10.91,10.91,0,0,1,18.21,28c0-.53,0-.83,0-.89a4.39,4.39,0,0,1,.4-1.28,3.55,3.55,0,0,1,.76-1.05l6-5.95a2,2,0,0,1,1.43-.63,1.64,1.64,0,0,1,1,.34,3,3,0,0,1,.76.83l4.79,9.08A2.18,2.18,0,0,1,33.6,30a2.77,2.77,0,0,1-.76,1.43l-2.19,2.2a.69.69,0,0,0-.16.29,1.16,1.16,0,0,0-.06.33,7.57,7.57,0,0,0,.8,2.15,19.39,19.39,0,0,0,1.66,2.62,28.49,28.49,0,0,0,3.18,3.56,29.16,29.16,0,0,0,3.58,3.2,20.8,20.8,0,0,0,2.61,1.68,7.07,7.07,0,0,0,1.62.64l.56.12a1.57,1.57,0,0,0,.29-.07A.85.85,0,0,0,45,48l2.55-2.59a2.73,2.73,0,0,1,1.88-.72,2.33,2.33,0,0,1,1.21.27h0l8.64,5.1a2.25,2.25,0,0,1,1.12,1.48A2,2,0,0,1,59.83,53.35Z"/></svg>