<svg id="Capa_1" data-name="Capa 1" xmlns="http://www.w3.org/2000/svg" viewBox="0 0 78.68 78.68"><defs><style>.cls-1{fill:#53b262;}.cls-1,.cls-2{fill-rule:evenodd;}.cls-2{fill:#fff;}</style></defs><path class="cls-1" d="M78.68,39.34A39.34,39.34,0,1,1,39.34,0,39.34,39.34,0,0,1,78.68,39.34Z"/><path class="cls-2" d="M51.2,44.23c-.61-.34-3.61-1.95-4.17-2.18s-1-.35-1.41.26-1.68,2-2.06,2.36-.74.44-1.35.1a16.71,16.71,0,0,1-4.88-3.27A18.25,18.25,0,0,1,34,37.07c-.35-.64,0-1,.32-1.26s.64-.7,1-1.05a4.39,4.39,0,0,0,.66-1,1.16,1.16,0,0,0,0-1.09c-.15-.32-1.27-3.42-1.75-4.69s-1-1.07-1.35-1.09-.78-.08-1.19-.09A2.26,2.26,0,0,0,30,27.5a7,7,0,0,0-2.37,5.1c-.11,3.06,2,6.1,2.3,6.52s4,7.05,10.26,9.78,6.26,1.89,7.4,1.83,3.73-1.36,4.3-2.79A5.16,5.16,0,0,0,52.36,45c-.14-.27-.55-.44-1.16-.77ZM39.79,59a20.19,20.19,0,0,1-11.15-3.35L20.85,58.1l2.54-7.52A20.25,20.25,0,1,1,39.79,59Zm0-44.6a24.34,24.34,0,0,0-20.85,36.9L17.13,61.74,28,60A24.34,24.34,0,1,0,39.79,14.36Z"/></svg>