<svg id="Capa_1" data-name="Capa 1" xmlns="http://www.w3.org/2000/svg" viewBox="0 0 78.68 78.68"><defs><style>.cls-1{fill:#fff;fill-rule:evenodd;}</style></defs><path class="cls-1" d="M39.79,18.43a20.26,20.26,0,0,0-16.4,32.15L20.85,58.1l7.79-2.49A20.26,20.26,0,1,0,39.79,18.43Zm12.1,29.51c-.57,1.43-3.16,2.73-4.3,2.79s-1.18.89-7.4-1.83-10-9.35-10.26-9.78-2.41-3.46-2.3-6.52A7,7,0,0,1,30,27.5a2.26,2.26,0,0,1,1.69-.71c.41,0,.82.08,1.19.09s.88-.17,1.35,1.09,1.6,4.37,1.75,4.69a1.16,1.16,0,0,1,0,1.09,4.39,4.39,0,0,1-.66,1c-.33.35-.68.78-1,1.05s-.67.62-.32,1.26a18.25,18.25,0,0,0,3.29,4.43,16.71,16.71,0,0,0,4.88,3.27c.61.34,1,.3,1.35-.1s1.62-1.76,2.06-2.36.85-.49,1.41-.26,3.56,1.84,4.17,2.18,1,.5,1.16.77A5.16,5.16,0,0,1,51.89,47.94Z"/><path class="cls-1" d="M39.34,0A39.34,39.34,0,1,0,78.68,39.34,39.34,39.34,0,0,0,39.34,0Zm.45,63A24.24,24.24,0,0,1,28,60L14.55,64.32l4.39-13.06A24.34,24.34,0,1,1,39.79,63Z"/></svg>